<svg xmlns="http://www.w3.org/2000/svg" width="154.909" height="30.994" viewBox="0 0 154.909 30.994">
  <g id="logo_SG" data-name="logo SG" transform="translate(-262.882 -38.09)">
    <g id="Group_4202" data-name="Group 4202" transform="translate(262.889 38.091)">
      <g id="Group_3610" data-name="Group 3610" transform="translate(0 3.236)">
        <g id="Group_3609" data-name="Group 3609">
          <path id="Path_7229" data-name="Path 7229" d="M3021.34,800.085a9.386,9.386,0,0,1-7.988,4.446h-13.865a9.4,9.4,0,0,1-9.4-9.4l3.128-16.708a1.688,1.688,0,0,1,1.688-1.65h1.386l-2.51,13.41a9.346,9.346,0,0,0,8.756,11.107c.107,0,.215.005.323.005h13.863A9.347,9.347,0,0,0,3021.34,800.085Z" transform="translate(-2990.094 -776.774)" fill="#52c4ff"/>
        </g>
      </g>
      <g id="Group_3612" data-name="Group 3612" transform="translate(3.528)">
        <path id="Path_7230" data-name="Path 7230" d="M3060.82,773.793a9.394,9.394,0,0,1-4.781,8.188c.049-.08.1-.161.146-.242a8.881,8.881,0,0,0,1.006-6.1l-2.868-15.32a1.688,1.688,0,0,0-1.687-1.65H3030.99l.3-1.586a1.686,1.686,0,0,1,1.686-1.65h23.033a1.688,1.688,0,0,1,1.686,1.65Z" transform="translate(-3028.321 -755.434)" fill="#ffd61a"/>
        <path id="Path_7231" data-name="Path 7231" d="M3042.423,796.131c-.133,1.7-.45,3.234-1.644,4.239s-3.354.927-4.31.927H3022.6c-.108,0-.216,0-.323-.005a9.346,9.346,0,0,1-8.755-11.107l2.51-13.41h21.646a1.689,1.689,0,0,1,1.688,1.65s2.877,14.638,2.979,15.769A11.2,11.2,0,0,1,3042.423,796.131Z" transform="translate(-3013.364 -773.538)" fill="#175cff"/>
        <g id="Group_3611" data-name="Group 3611" transform="translate(5.241 7.651)">
          <path id="Path_7232" data-name="Path 7232" d="M3057.17,817.34c-5.353,0-9.239-4.259-9.239-10.126a1.322,1.322,0,0,1,2.644,0c0,4.405,2.711,7.482,6.595,7.482,5.449,0,5.872-5.727,5.872-7.482a1.323,1.323,0,0,1,2.645,0C3065.69,813.365,3062.34,817.34,3057.17,817.34Z" transform="translate(-3047.932 -805.892)" fill="#fff"/>
        </g>
        <circle id="Ellipse_188" data-name="Ellipse 188" cx="2.168" cy="2.168" r="2.168" transform="translate(4.395 6.805)" fill="#fff"/>
        <circle id="Ellipse_189" data-name="Ellipse 189" cx="2.168" cy="2.168" r="2.168" transform="translate(19.507 6.805)" fill="#fff"/>
      </g>
    </g>
    <g id="Group_3641" data-name="Group 3641" transform="translate(305.892 44.172)">
      <path id="Path_7244" data-name="Path 7244" d="M785.839,3510.72a2.458,2.458,0,0,1,.766,1.584,1.433,1.433,0,0,1-1.479,1.427,2.072,2.072,0,0,1-1.426-.713,3.156,3.156,0,0,0-2.535-1.188c-1.611,0-2.535.819-2.535,1.981,0,.872.476,1.664,2.06,2.271l1.03.4c4.12,1.559,5.784,3.064,5.784,5.6,0,3.645-3.618,5.467-6.682,5.467a7.163,7.163,0,0,1-5.573-2.483,2.74,2.74,0,0,1-.739-1.716,1.425,1.425,0,0,1,1.453-1.506,2.108,2.108,0,0,1,1.69,1,4,4,0,0,0,3.169,1.532c1.294,0,3.064-.5,3.064-2.3,0-1.374-.924-2.007-2.958-2.8l-1.109-.422c-2.72-1.056-4.728-2.377-4.728-5.07,0-3.143,2.641-5.1,5.942-5.1a6.044,6.044,0,0,1,4.806,2.038Z" transform="translate(-774.509 -3508.504)" fill="#0f0a4d"/>
      <path id="Path_7245" data-name="Path 7245" d="M892.49,3518.75v5.969a1.73,1.73,0,0,1-3.46,0v-5.969c0-2.377-1.241-3.354-2.8-3.354a3.425,3.425,0,0,0-3.275,2.958v6.365a1.73,1.73,0,0,1-3.46,0v-15.556a1.73,1.73,0,0,1,3.46,0v6.391a4.533,4.533,0,0,1,4.516-3.116C890.139,3512.44,892.49,3514.18,892.49,3518.75Z" transform="translate(-863.861 -3507.448)" fill="#0f0a4d"/>
      <path id="Path_7246" data-name="Path 7246" d="M998.585,3547.84a7.025,7.025,0,1,1-2.058-4.995,7.052,7.052,0,0,1,2.058,4.995Zm-10.67,0a3.64,3.64,0,1,0,3.618-4.041,3.714,3.714,0,0,0-3.617,4.041Z" transform="translate(-953.213 -3535.825)" fill="#0f0a4d"/>
      <path id="Path_7247" data-name="Path 7247" d="M1106.48,3547.81c0,4.807-3.486,7.052-6.391,7.052a4.024,4.024,0,0,1-3.909-2.245v.5a.978.978,0,0,1-.027.291v4.754a1.743,1.743,0,0,1-3.486,0v-15.583a1.8,1.8,0,0,1,1.77-1.716,1.753,1.753,0,0,1,1.743,1.716v.449a4.176,4.176,0,0,1,3.909-2.245,6.614,6.614,0,0,1,6.391,7.027Zm-3.46,0c0-2.694-1.822-4.067-3.566-4.067-1.479,0-3.433,1.083-3.433,4.067s1.954,4.067,3.433,4.067C1101.19,3551.88,1103.02,3550.53,1103.02,3547.81Z" transform="translate(-1045.284 -3535.825)" fill="#0f0a4d"/>
      <path id="Path_7248" data-name="Path 7248" d="M1206.16,3542.88a1.747,1.747,0,0,1-.211.792l-6.84,15.4a1.805,1.805,0,0,1-1.664,1.215,1.522,1.522,0,0,1-1.532-1.558,2.187,2.187,0,0,1,.185-.792l1.505-3.434-4.912-10.828a2.183,2.183,0,0,1-.185-.792,1.567,1.567,0,0,1,1.585-1.558,1.8,1.8,0,0,1,1.664,1.215l3.539,8.187,3.618-8.187a1.774,1.774,0,0,1,1.637-1.216,1.573,1.573,0,0,1,1.611,1.555Z" transform="translate(-1130.258 -3536.277)" fill="#0f0a4d"/>
      <path id="Path_7249" data-name="Path 7249" d="M1315.94,3519.7a7.864,7.864,0,0,1-8.187,7.844,9.429,9.429,0,1,1-.079-18.857,8.483,8.483,0,0,1,4.411,1.136c.977.634,1.585,1.215,1.585,2.086a1.594,1.594,0,0,1-1.664,1.611,2.384,2.384,0,0,1-1.426-.555,5,5,0,0,0-2.852-.9,6.063,6.063,0,0,0,.026,12.1,4.58,4.58,0,0,0,4.728-3.75h-3.011a1.469,1.469,0,1,1,0-2.932h4.569a1.851,1.851,0,0,1,1.9,2.217Z" transform="translate(-1220.364 -3508.504)" fill="#0f0a4d"/>
      <path id="Path_7250" data-name="Path 7250" d="M1445.31,3547.84a7.025,7.025,0,1,1-2.057-4.995,7.052,7.052,0,0,1,2.057,4.995Zm-10.67,0a3.64,3.64,0,1,0,3.618-4.041,3.714,3.714,0,0,0-3.618,4.041Z" transform="translate(-1333.411 -3535.825)" fill="#0f0a4d"/>
    </g>
  </g>
</svg>
